<?xml version="1.0" standalone="no"?>
<!DOCTYPE svg PUBLIC "-//W3C//DTD SVG 20010904//EN"
 "http://www.w3.org/TR/2001/REC-SVG-20010904/DTD/svg10.dtd">
<svg version="1.0" xmlns="http://www.w3.org/2000/svg"
 width="200.000000pt" height="200.000000pt" viewBox="0 0 200.000000 200.000000"
 preserveAspectRatio="xMidYMid meet">

<g transform="translate(0.000000,200.000000) scale(0.100000,-0.100000)"
fill="#000000" stroke="none">
<path d="M51 1151 c-16 -22 -21 -44 -21 -89 0 -34 5 -64 10 -67 6 -3 10 -41
10 -84 0 -85 12 -108 50 -96 18 6 20 15 20 86 l0 79 160 0 160 0 0 -79 c0 -69
3 -80 19 -86 42 -13 51 2 51 91 0 49 4 84 10 84 6 0 10 32 10 75 0 43 -4 75
-10 75 -5 0 -10 6 -10 14 0 18 -31 29 -54 20 -9 -3 -16 -12 -16 -20 0 -11 -29
-14 -155 -14 -144 0 -155 1 -165 20 -15 29 -45 25 -69 -9z m52 2 c-7 -2 -19
-2 -25 0 -7 3 -2 5 12 5 14 0 19 -2 13 -5z m384 1 c-3 -3 -12 -4 -19 -1 -8 3
-5 6 6 6 11 1 17 -2 13 -5z m-407 -28 c0 -2 -7 -9 -15 -16 -12 -10 -15 -10
-15 4 0 9 7 16 15 16 8 0 15 -2 15 -4z m150 0 c0 -2 -34 -31 -75 -65 -67 -55
-112 -77 -103 -51 7 22 135 120 156 120 12 0 22 -2 22 -4z m80 -56 c-59 -55
-103 -80 -116 -67 -10 9 137 127 159 127 18 -1 10 -12 -43 -60z m198 51 c-8
-23 -137 -121 -159 -121 l-24 0 25 23 c77 69 127 106 143 107 10 0 17 -4 15
-9z m10 -103 c-3 -7 -13 -15 -24 -17 -16 -3 -17 -1 -5 13 16 19 34 21 29 4z
m-408 -113 c0 -68 -2 -75 -20 -75 -18 0 -20 7 -20 75 0 68 2 75 20 75 18 0 20
-7 20 -75z m380 0 c0 -60 -3 -75 -15 -75 -12 0 -15 15 -15 75 0 60 3 75 15 75
12 0 15 -15 15 -75z"/>
<path d="M657 1173 c-4 -3 -7 -42 -7 -85 0 -77 0 -78 25 -78 20 0 25 5 25 25
0 20 5 25 25 25 20 0 25 -5 25 -25 0 -20 5 -25 25 -25 22 0 25 4 25 34 0 19
-4 38 -10 41 -5 3 -10 22 -10 41 0 28 -5 36 -26 44 -29 11 -87 13 -97 3z m73
-53 c0 -21 -15 -27 -25 -10 -7 12 2 30 16 30 5 0 9 -9 9 -20z"/>
<path d="M824 1165 c-7 -18 3 -35 22 -35 10 0 14 -12 14 -40 0 -33 -3 -40 -20
-40 -13 0 -20 -7 -20 -20 0 -18 7 -20 60 -20 53 0 60 2 60 20 0 11 -7 20 -15
20 -22 0 -20 69 2 85 9 7 14 19 10 29 -9 22 -105 23 -113 1z"/>
<path d="M978 1174 c-5 -4 -8 -43 -8 -86 l0 -78 58 0 c32 0 63 5 70 12 17 17
16 123 -2 137 -17 14 -108 26 -118 15z m82 -84 c0 -33 -3 -40 -20 -40 -17 0
-20 7 -20 40 0 33 3 40 20 40 17 0 20 -7 20 -40z"/>
<path d="M1147 1174 c-12 -13 -7 -77 9 -121 16 -40 19 -43 55 -43 35 0 40 3
54 37 9 21 15 58 13 83 -2 37 -6 45 -23 45 -17 0 -21 -8 -25 -54 -8 -92 -31
-76 -42 29 -3 24 -27 38 -41 24z"/>
<path d="M1343 1168 c-17 -22 -33 -79 -33 -119 0 -35 3 -39 25 -39 18 0 25 5
25 20 0 13 7 20 20 20 13 0 20 -7 20 -20 0 -15 7 -20 25 -20 23 0 25 3 25 48
-1 68 -27 116 -66 120 -17 2 -35 -3 -41 -10z m51 -54 c9 -23 8 -24 -14 -24
-11 0 -20 2 -20 4 0 12 13 36 20 36 4 0 11 -7 14 -16z"/>
<path d="M1487 1173 c-4 -3 -7 -42 -7 -85 0 -77 0 -78 25 -78 23 0 25 4 25 42
l0 41 25 -23 c14 -13 25 -32 25 -42 0 -11 7 -18 20 -18 20 0 21 5 18 83 -2 65
-6 82 -18 82 -9 0 -16 -11 -18 -28 l-3 -28 -35 31 c-36 31 -46 35 -57 23z"/>
<path d="M650 900 c0 -79 0 -80 25 -80 23 0 25 4 25 42 0 40 1 41 17 25 16
-15 18 -15 35 0 17 15 18 14 18 -25 0 -38 2 -42 25 -42 25 0 25 1 25 80 l0 80
-30 0 c-16 0 -30 -4 -30 -8 0 -5 -6 -17 -14 -27 -14 -19 -15 -19 -27 8 -9 20
-19 27 -41 27 l-28 0 0 -80z"/>
<path d="M868 953 c-6 -16 -13 -52 -16 -80 -4 -52 -4 -53 22 -53 19 0 26 5 26
20 0 13 7 20 20 20 13 0 20 -7 20 -20 0 -15 7 -20 26 -20 26 0 26 1 22 53 -3
28 -10 64 -16 80 -10 23 -17 27 -52 27 -35 0 -42 -4 -52 -27z m66 -29 c9 -23
8 -24 -14 -24 -11 0 -20 2 -20 4 0 12 13 36 20 36 4 0 11 -7 14 -16z"/>
<path d="M1020 900 c0 -79 0 -80 25 -80 21 0 25 5 25 30 0 23 4 30 20 30 16 0
20 -7 20 -31 0 -27 3 -30 28 -27 21 2 28 9 30 31 2 16 -4 39 -12 52 -12 18
-13 30 -6 50 8 22 7 25 -14 25 -17 0 -27 -9 -36 -30 -7 -16 -16 -30 -21 -30
-5 0 -9 14 -9 30 0 25 -4 30 -25 30 -25 0 -25 -1 -25 -80z"/>
<path d="M1190 964 c0 -9 9 -18 20 -21 16 -4 20 -14 20 -43 0 -29 -4 -39 -20
-43 -11 -3 -20 -12 -20 -21 0 -13 12 -16 60 -16 53 0 60 2 60 20 0 11 -7 20
-15 20 -11 0 -15 11 -15 40 0 29 4 40 15 40 8 0 15 9 15 20 0 18 -7 20 -60 20
-48 0 -60 -3 -60 -16z"/>
<path d="M1340 900 c0 -79 0 -80 25 -80 23 0 25 4 25 43 l0 42 20 -25 c11 -14
20 -33 20 -42 0 -12 8 -18 25 -18 25 0 25 1 25 80 0 79 0 80 -25 80 -21 0 -25
-5 -25 -27 l-1 -28 -24 28 c-13 15 -33 27 -45 27 -18 0 -20 -6 -20 -80z"/>
<path d="M1520 900 l0 -80 60 0 c53 0 60 2 60 20 0 16 -7 20 -35 20 -19 0 -35
5 -35 10 0 6 11 10 25 10 18 0 25 5 25 20 0 15 -7 20 -25 20 -14 0 -25 5 -25
10 0 6 16 10 35 10 28 0 35 4 35 20 0 18 -7 20 -60 20 l-60 0 0 -80z"/>
</g>
</svg>
